HIERARCHY
ROOT Hips
{
	OFFSET 0.00000 0.00000 0.00000
	CHANNELS 6 Xposition Yposition Zposition Yrotation Zrotation Xrotation 
	JOINT Lumbar
	{
		OFFSET 0 0 0
		CHANNELS 3 Zrotation Xrotation Yrotation
		JOINT Neck
		{
			OFFSET 0.00 0.2701 0.00
			CHANNELS 3 Zrotation Xrotation Yrotation
			End Site
			{
				OFFSET 0.00 0.1379 0.00
			}
		}
		JOINT RightShoulder
		{
			OFFSET 0.0119 0.2289 0.1181
			CHANNELS 3 Zrotation Xrotation Yrotation
			JOINT RightElbow
			{
				OFFSET 0.00 -0.1475 0.00
				CHANNELS 2 Zrotation Yrotation
				JOINT RightWrist
				{
					OFFSET 0.00 -0.1605 0.00
					CHANNELS 2 Zrotation Xrotation
					End Site
					{
						OFFSET 0.0040 -0.1068 0.0006
					}
				}
			}
		}
		JOINT LeftShoulder
		{
			OFFSET 0.0119 0.2289 -0.1181
			CHANNELS 3 Zrotation Xrotation Yrotation
			JOINT LeftElbow
			{
				OFFSET 0.00 -0.1475 0.00
				CHANNELS 2 Zrotation Yrotation
				JOINT LeftWrist
				{
					OFFSET 0.00 -0.1605 0.00
					CHANNELS 2 Zrotation Xrotation
					End Site
					{
						OFFSET 0.0040 -0.1068 -0.0006
					}
				}
			}
		}
	}
	JOINT RightHip
	{
		OFFSET 0.0316 -0.0424 0.0458
		CHANNELS 3 Zrotation Xrotation Yrotation
		JOINT RightKnee
		{
			OFFSET 0.00 -0.2438 0.00
			CHANNELS 1 Zrotation
			JOINT RightAnkle
			{
				OFFSET 0.00 -0.2449 0.00
				CHANNELS 3 Zrotation Xrotation Yrotation
				End Site
				{
					OFFSET 0.1237 -0.0542 0.0051
				}
			}
		}
	}
	JOINT LeftHip
	{
		OFFSET 0.0316 -0.0424 -0.0458
		CHANNELS 3 Zrotation Xrotation Yrotation
		JOINT LeftKnee
		{
			OFFSET 0.00 -0.2438 0.00
			CHANNELS 1 Zrotation
			JOINT LeftAnkle
			{
				OFFSET 0.00 -0.2449 0.00
				CHANNELS 3 Zrotation Xrotation Yrotation
				End Site
				{
					OFFSET 0.1237 -0.0542 -0.0051
				}
			}
		}
	}
}
MOTION
Frames: 11
Frame Time: 0.02
0.00086 -0 -0.00056 -178.2856 -41.75061 -3.09562 50.00544 1.74001 -3.60925 8.50654 0.18259 -0.32766 -8.73599 -15.59905 -14.14237 27.86652 68.47409 -3.39146 -1.90917 -15.09439 8.32982 15.32252 54.22346 -146.47879 26.08352 -8.64792 44.2113 1.35519 -7.47916 -19.28226 -6.25621 -3.5838 -2.44177 46.96627 2.00906 2.99399 -24.93414 -6.3656 3.53447 2.44123
0.00059 -2e-05 -0.00064 -178.13852 -41.69796 -3.06519 49.90193 1.73229 -3.6499 8.60282 0.11809 -0.32831 -9.25831 -15.12449 -11.42297 28.46551 73.59243 -1.43702 -1.30803 -15.22399 9.03844 11.64281 53.63657 -144.34607 25.46077 -8.22095 44.12842 1.34818 -7.58946 -19.30694 -6.25124 -3.57717 -2.44236 46.90048 2.04388 3.09949 -24.95466 -6.36007 3.4976 2.42241
0.00033 -3e-05 -0.00072 -177.99168 -41.64545 -3.0348 49.79862 1.72457 -3.69054 8.69868 0.05374 -0.32898 -9.77964 -14.65193 -8.71039 29.06364 78.6896 0.51015 -0.70962 -15.35383 9.74459 7.97464 53.05138 -142.21478 24.83879 -7.79446 44.04583 1.34117 -7.69939 -19.33154 -6.24629 -3.57057 -2.44296 46.83493 2.07854 3.20447 -24.97513 -6.35456 3.46084 2.40366
6e-05 -5e-05 -0.00079 -177.84502 -41.59296 -3.00447 49.69541 1.71687 -3.73109 8.79465 -0.01057 -0.32964 -10.30046 -14.17889 -5.99904 29.66098 83.79111 2.45833 -0.11051 -15.48314 10.45093 4.30629 52.46627 -140.08766 24.21776 -7.36864 43.9632 1.33417 -7.80936 -19.35614 -6.24133 -3.56396 -2.44354 46.76934 2.11324 3.30962 -24.99559 -6.34904 3.42408 2.3849
-0.0002 -6e-05 -0.00087 -177.69817 -41.54033 -2.97412 49.59206 1.70917 -3.77162 8.89109 -0.07503 -0.33027 -10.822 -13.70368 -3.28164 30.25873 88.91631 4.41434 0.49175 -15.61196 11.15998 0.62635 51.87951 -137.96142 23.59641 -6.94273 43.88032 1.32718 -7.91971 -19.38081 -6.23633 -3.55732 -2.44412 46.70349 2.14813 3.41535 -25.01611 -6.34348 3.38722 2.36609
-0.00046 -8e-05 -0.00094 -177.55138 -41.48808 -2.94364 49.48881 1.70144 -3.81245 8.98573 -0.13913 -0.33103 -11.34285 -13.23673 -0.57949 30.85759 93.95459 6.34291 1.08209 -15.7439 11.8601 -3.01686 51.2977 -135.81989 22.97321 -6.51509 43.79834 1.32014 -8.02875 -19.40526 -6.23147 -3.55082 -2.44476 46.63859 2.18228 3.51873 -25.03646 -6.33808 3.35066 2.34746
-0.00074 -9e-05 -0.00102 -177.40463 -41.43512 -2.91347 49.38549 1.69377 -3.85268 9.08387 -0.2039 -0.33151 -11.86458 -12.75363 2.15077 31.45375 99.1605 8.32415 1.69548 -15.86946 12.57699 -6.72979 50.70653 -133.71051 22.35432 -6.09122 43.71458 1.31321 -8.1403 -19.43014 -6.22635 -3.54404 -2.44527 46.57182 2.21788 3.62675 -25.05713 -6.33236 3.31353 2.32847
-0.001 -0.0001 -0.00109 -177.25785 -41.38284 -2.88302 49.28221 1.68605 -3.89339 9.17879 -0.26802 -0.33227 -12.38538 -12.28552 4.85436 32.05204 104.21498 10.25759 2.28811 -16.00086 13.27919 -10.37877 50.12406 -131.57329 21.73162 -5.66421 43.63254 1.30618 -8.24955 -19.45462 -6.22148 -3.53751 -2.4459 46.50684 2.25216 3.73047 -25.0775 -6.32695 3.27694 2.30982
-0.00125 -0.00011 -0.00117 -177.11093 -41.33128 -2.85216 49.17902 1.67825 -3.935 9.26977 -0.33148 -0.33332 -12.90585 -11.83525 7.52976 32.65478 109.07299 12.13011 2.85348 -16.13972 13.96059 -13.94972 49.55167 -129.39305 21.10314 -5.2317 43.55227 1.29899 -8.35597 -19.47862 -6.21689 -3.53131 -2.44669 46.44375 2.28476 3.82902 -25.09753 -6.32188 3.24095 2.29157
-0.00157 -0.00014 -0.00125 -176.9645 -41.27521 -2.82344 49.0754 1.67083 -3.97235 9.38344 -0.39917 -0.33256 -13.43067 -11.28084 10.38069 33.23752 115.02729 14.34571 3.57006 -16.23662 14.75313 -17.97013 48.91961 -127.43311 20.50449 -4.8258 43.46083 1.29262 -8.47862 -19.5054 -6.2106 -3.52327 -2.44659 46.36889 2.32684 3.95757 -25.11959 -6.31474 3.20133 2.27098
-0.00174 -0.00013 -0.00132 -176.81727 -41.22891 -2.79034 48.97266 1.66267 -4.01812 9.44923 -0.45762 -0.33569 -13.94462 -10.94707 12.85243 33.85872 118.69063 15.8422 3.97127 -16.42138 15.31664 -21.0417 48.41456 -125.02651 19.84527 -4.36711 43.39359 1.28459 -8.56707 -19.52628 -6.20792 -3.5191 -2.44834 46.31945 2.34902 4.02268 -25.13734 -6.31201 3.16945 2.25536
